<svg width="132" height="35" viewBox="0 0 132 35" fill="none" xmlns="http://www.w3.org/2000/svg">
<path d="M5.06663 20.3929V29.8228H0V15.79C0.449459 16.5843 1.0215 17.3379 1.69569 18.0304C2.47202 18.8247 3.30965 19.4764 4.229 19.9856C4.49459 20.1282 4.78061 20.2707 5.06663 20.3929Z" fill="#303030"/>
<path d="M30.1546 24.8335C30.1546 27.6238 29.2353 29.9863 27.3966 31.8601C25.5579 33.7542 23.2697 34.6911 20.5321 34.6911H12.4623V21.2897H17.6719V29.803H20.5321C21.9009 29.803 23.0246 29.355 23.903 28.4385C24.7815 27.522 25.2106 26.3203 25.2106 24.8132C25.2106 23.306 24.7815 22.1044 23.903 21.1879C23.045 20.2714 21.9213 19.8233 20.5321 19.8233H9.60208C7.96768 19.8233 6.49672 19.4974 5.18921 18.8253C5.10749 18.7846 5.00534 18.7439 4.92362 18.6828C4.12685 18.2551 3.4118 17.6848 2.73761 16.9923C2.26772 16.5239 1.87956 16.0147 1.53225 15.4852C0.572039 13.9984 0.0612899 12.2876 0 10.3528V9.57882C0.0817198 6.9515 1.00107 4.73152 2.75804 2.93924C4.59674 1.04513 6.88489 0.0878906 9.60208 0.0878906H17.6719V13.4892H12.4623V4.97592H9.60208C8.23327 4.97592 7.10962 5.42399 6.23114 6.3405C5.35265 7.257 4.92362 8.45864 4.92362 9.96579C4.92362 11.4729 5.35265 12.6746 6.23114 13.5911C7.08919 14.5076 8.21284 14.9557 9.60208 14.9557H20.5117C23.2493 14.9557 25.5374 15.8925 27.3761 17.7866C29.2353 19.6807 30.1546 22.0229 30.1546 24.8335Z" fill="#303030"/>
<path d="M50.686 19.7402H54.4859V34.6284H50.686V26.6038L47.0699 32.5917H46.6817L43.086 26.6242V34.6284H39.2656V19.7402H43.086L46.8656 26.0947L50.686 19.7402Z" fill="#303030"/>
<path d="M49.2359 0.0458984H44.5779L39.6543 14.934H43.8016L44.4349 12.7955H49.3994L50.0327 14.934H54.1391L49.2359 0.0458984ZM45.4155 9.51646L46.9069 4.46549L48.4187 9.51646H45.4155Z" fill="#47A7E3"/>
<path d="M61.3293 0.0458984H55.2411V9.9238H59.1637V3.73229H61.3088C62.3508 3.73229 63.1884 4.07853 63.8422 4.771C64.4959 5.46347 64.8228 6.35961 64.8228 7.50015C64.8228 8.64069 64.4959 9.53683 63.8422 10.2293C63.1884 10.9218 62.3508 11.268 61.3088 11.268H60.9207H59.1433H55.2207V14.9544H61.3088C63.3723 14.9544 65.0884 14.2416 66.4776 12.8159C67.8669 11.3902 68.5615 9.6183 68.5615 7.52051C68.5615 5.40237 67.8669 3.63046 66.4776 2.22515C65.1088 0.758736 63.3927 0.0458984 61.3293 0.0458984Z" fill="#47A7E3"/>
<path d="M76.428 0.0458984H70.3398V3.73229H74.2624H75.7946H76.428C77.4699 3.73229 78.3075 4.07852 78.9613 4.771C79.6151 5.46347 79.9419 6.35961 79.9419 7.50015C79.9419 8.64069 79.6151 9.53683 78.9613 10.2293C78.3075 10.9218 77.4699 11.268 76.428 11.268H74.2828V5.05613H70.3603V14.934H76.4484C78.5118 14.934 80.228 14.2212 81.6172 12.7955C83.0064 11.3698 83.701 9.59793 83.701 7.50015C83.701 5.382 83.0064 3.61009 81.6172 2.20478C80.2075 0.758736 78.4914 0.0458984 76.428 0.0458984Z" fill="#47A7E3"/>
<path d="M108.299 23.4266H111.997V34.6284H115.817V23.4266H119.494V19.7402H108.299V23.4266Z" fill="#303030"/>
<path d="M131.057 28.3764C130.791 27.8265 130.403 27.3785 129.893 27.0322C129.361 26.686 128.891 26.4212 128.442 26.2379C127.993 26.0546 127.421 25.8509 126.685 25.6473C125.684 25.3418 124.989 25.0974 124.642 24.853C124.295 24.6289 124.111 24.3438 124.111 24.0179C124.111 23.7328 124.233 23.5088 124.458 23.3255C124.683 23.1422 125.03 23.0403 125.5 23.0403C126.583 23.0403 127.359 23.5902 127.829 24.69L131.037 22.8163C130.526 21.7165 129.79 20.8611 128.81 20.2908C127.85 19.7002 126.726 19.415 125.48 19.415C124.009 19.415 122.763 19.8427 121.782 20.6981C120.801 21.5536 120.29 22.6534 120.29 24.0383C120.29 25.3214 120.679 26.3194 121.475 27.0322C122.272 27.7451 123.355 28.295 124.724 28.7023C125.684 28.9671 126.317 29.1707 126.603 29.2726C127.278 29.5373 127.604 29.9039 127.604 30.3316C127.604 31.0037 127.012 31.3296 125.847 31.3296C124.438 31.3296 123.457 30.6779 122.906 29.354L119.637 31.2481C120.045 32.3887 120.781 33.2848 121.802 33.9569C122.844 34.629 124.152 34.9549 125.725 34.9549C127.441 34.9549 128.81 34.5476 129.852 33.7125C130.894 32.8979 131.404 31.7573 131.404 30.2909C131.445 29.5577 131.323 28.906 131.057 28.3764Z" fill="#303030"/>
<path d="M65.15 19.7402H60.492L55.5684 34.6284H59.7156L60.349 32.4899H65.3134L65.9468 34.6284H70.0736L65.15 19.7402ZM61.3296 29.2108L62.821 24.1598L64.3328 29.2108H61.3296Z" fill="#303030"/>
<path d="M101.659 28.8646H106.808V25.3615H101.659V23.3044H107.339V19.7402H97.8594V34.6284H107.441V31.0642H101.659V28.8646Z" fill="#303030"/>
<path d="M96.5504 19.7402H92.2805L88.2149 25.9928V19.7402H84.3945V34.6284H88.2149V27.9684L92.5052 34.6284H96.7547L91.8106 26.9704L96.5504 19.7402Z" fill="#303030"/>
<path d="M79.982 29.1293C80.7583 28.6813 81.3917 28.0906 81.8411 27.3574C82.2906 26.6038 82.5153 25.7892 82.5153 24.893C82.5153 23.4063 82.0046 22.1843 80.9626 21.2066C79.9411 20.229 78.6541 19.7402 77.1422 19.7402H76.8971H76.3046H74.9767H72.4025H71.1562V34.6284H74.9767V29.8218H76.3455L78.9401 34.6284H83.0261L79.982 29.1293ZM78.2455 26.1354C77.939 26.4409 77.5713 26.6038 77.1014 26.5835H74.9767V25.6059V23.2433H76.3046H76.8971H77.0809C77.5508 23.2433 77.939 23.4063 78.225 23.7118C78.5315 24.0173 78.6745 24.4246 78.6745 24.9338C78.6949 25.4226 78.5519 25.8299 78.2455 26.1354Z" fill="#303030"/>
</svg>
