<svg width="31" height="30" viewBox="0 0 31 30" fill="none" xmlns="http://www.w3.org/2000/svg">
<path d="M21.1425 9.03125H9.35678C8.59148 9.03125 7.82617 9.64349 7.82617 10.5619V19.4394C7.82617 20.2047 8.43842 20.97 9.35678 20.97H21.1425C21.9078 20.97 22.6731 20.3578 22.6731 19.4394V10.5619C22.6731 9.64349 21.9078 9.03125 21.1425 9.03125ZM21.1425 19.2864H9.35678V11.9394L14.8021 15.2904C15.1235 15.4882 15.5289 15.4882 15.8503 15.2904L21.2956 11.9394V19.2864H21.1425ZM15.8633 13.8328C15.5359 14.0452 15.1149 14.0476 14.7849 13.8392L9.35678 10.4088H21.1425L15.8633 13.8328Z" fill="#56AEDB"/>
<path fill-rule="evenodd" clip-rule="evenodd" d="M1.17188 15C1.17188 22.713 7.45885 29 15.1719 29C23.0313 29 29.1719 22.7197 29.1719 15C29.1719 7.28698 22.8849 1 15.1719 1C7.45885 1 1.17188 7.28698 1.17188 15ZM0.171875 15C0.171875 23.2653 6.90657 30 15.1719 30C23.5902 30 30.1719 23.2653 30.1719 15C30.1719 6.7347 23.4372 0 15.1719 0C6.90657 0 0.171875 6.7347 0.171875 15Z" fill="#56AEDB"/>
</svg>
