<svg width="30" height="30" viewBox="0 0 30 30" fill="none" xmlns="http://www.w3.org/2000/svg">
<path fill-rule="evenodd" clip-rule="evenodd" d="M1 15C1 22.713 7.28698 29 15 29C22.8594 29 29 22.7197 29 15C29 7.28698 22.713 1 15 1C7.28698 1 1 7.28698 1 15ZM0 15C0 23.2653 6.73469 30 15 30C23.4184 30 30 23.2653 30 15C30 6.7347 23.2653 0 15 0C6.73469 0 0 6.7347 0 15Z" fill="#56AEDB"/>
<rect x="9.5" y="10.2002" width="10.9091" height="1.4" rx="0.4" fill="#56AEDB"/>
<rect x="9.5" y="14.291" width="10.9091" height="1.4" rx="0.4" fill="#56AEDB"/>
<rect x="9.5" y="18.3818" width="10.9091" height="1.4" rx="0.4" fill="#56AEDB"/>
</svg>
